<svg xmlns="http://www.w3.org/2000/svg" xmlns:xlink="http://www.w3.org/1999/xlink" width="98" height="98" viewBox="0 0 98 98"><defs><path id="msvaa" d="M80 843c27.062 0 49 21.938 49 49s-21.938 49-49 49-49-21.938-49-49 21.938-49 49-49z"/><path id="msvab" d="M99 887.987a19.74 19.74 0 0 1-.333 3.602s-.039.206-.127.588a19.023 19.023 0 0 1-1.283 3.769c-1.968 4.65-6.561 12.501-17.05 20.978a.324.324 0 0 1-.41 0c-10.479-8.477-15.081-16.328-17.05-20.978a18.425 18.425 0 0 1-1.283-3.769 6.295 6.295 0 0 1-.127-.588 19.117 19.117 0 0 1-.254-5.462c.91-9.476 8.715-16.798 18.233-17.132C90.118 868.624 99 877.268 99 887.987zm-10.302 7.792a11.483 11.483 0 0 0 2.83-7.567c0-6.373-5.17-11.532-11.535-11.532-6.366 0-11.537 5.159-11.537 11.532 0 2.898 1.068 5.541 2.83 7.567.255-.48.676-.88 1.332-1.048 2.282-.577 4.143-1.889 4.143-1.889l1.45 4.581.273.862v-.01l.235.735.764-2.164c-1.88-2.623.382-2.594.51-2.594.127 0 2.389-.03.508 2.594l.764 2.164.235-.734v.01l.275-.863 1.449-4.58s1.86 1.311 4.142 1.888a2.053 2.053 0 0 1 1.332 1.048zm-4.466-9.094c.383-.04.823.176.412 1.654-.303 1.068-.588 1.371-.803 1.39-.196 1.283-1.214 2.898-2.81 3.476a3.089 3.089 0 0 1-2.057 0c-1.626-.568-2.615-2.193-2.81-3.475-.216-.01-.5-.314-.804-1.39-.411-1.469.03-1.694.402-1.655a3.795 3.795 0 0 1-.167-.607c-.137-.685-.166-1.321-.01-1.938.196-.823.637-1.479 1.137-1.987a5.172 5.172 0 0 1 1.048-.862 3.996 3.996 0 0 1 1.018-.519 3.49 3.49 0 0 1 .92-.176c1.01-.088 1.773.166 2.321.49.813.45 1.127 1.047 1.127 1.047s1.88.137 1.243 3.945c-.039.206-.098.4-.167.607z"/></defs><g><g transform="translate(-31 -843)"><use fill="#306e85" xlink:href="#msvaa"/></g><g transform="translate(-31 -843)"><use fill="#fff" xlink:href="#msvab"/></g></g></svg>