<svg xmlns="http://www.w3.org/2000/svg" xmlns:xlink="http://www.w3.org/1999/xlink" width="98" height="98" viewBox="0 0 98 98"><defs><path id="ysr6a" d="M555 843c27.062 0 49 21.938 49 49s-21.938 49-49 49-49-21.938-49-49 21.938-49 49-49z"/><path id="ysr6b" d="M546.202 894.457c-6.739 0-12.202-2.456-12.202-5.487v-1.19c0-3.03 5.463-5.487 12.202-5.487 1.18 0 2.322.076 3.401.216v11.732c-1.08.14-2.22.216-3.4.216zm0 6.127c-6.739 0-12.202-2.457-12.202-5.488v-1.19c0-.385.089-.76.257-1.123 1.153 2.49 6.063 4.363 11.945 4.363 1.18 0 2.322-.077 3.401-.218v3.44c-1.08.14-2.22.216-3.4.216zm3.401 3.928c0 .666.155 1.309.456 1.918-1.213.181-2.509.28-3.857.28-6.739 0-12.202-2.457-12.202-5.488v-1.19c0-.385.089-.76.257-1.123 1.153 2.491 6.063 4.363 11.945 4.363 1.18 0 2.321-.076 3.401-.217zM563.797 873c6.74 0 12.203 2.457 12.203 5.487v1.19c0 3.031-5.464 5.488-12.203 5.488-6.74 0-12.203-2.457-12.203-5.487v-1.19c0-3.031 5.464-5.488 12.203-5.488zm0 14.853c5.883 0 10.793-1.871 11.946-4.363.168.363.257.738.257 1.124v1.19c0 3.03-5.464 5.487-12.203 5.487-6.74 0-12.203-2.457-12.203-5.487v-1.19c0-.386.09-.761.257-1.124 1.153 2.492 6.064 4.363 11.946 4.363zm0 6.126c5.883 0 10.793-1.871 11.946-4.363.168.363.257.74.257 1.124v1.19c0 3.03-5.464 5.488-12.203 5.488-6.74 0-12.203-2.457-12.203-5.488v-1.19c0-.385.09-.76.257-1.124 1.153 2.492 6.064 4.363 11.946 4.363zm0 6.458c5.883 0 10.793-1.873 11.946-4.364.168.363.257.739.257 1.124v1.19c0 3.03-5.464 5.488-12.203 5.488-6.74 0-12.203-2.457-12.203-5.488v-1.19c0-.385.09-.761.257-1.124 1.153 2.491 6.064 4.364 11.946 4.364zm0 6.126c5.883 0 10.793-1.872 11.946-4.363.168.362.257.738.257 1.123v1.19c0 3.03-5.464 5.488-12.203 5.488-6.74 0-12.203-2.457-12.203-5.488v-1.19c0-.385.09-.76.257-1.123 1.153 2.491 6.064 4.363 11.946 4.363z"/></defs><g><g transform="translate(-506 -843)"><use fill="#306e85" xlink:href="#ysr6a"/></g><g transform="translate(-506 -843)"><use fill="#fff" xlink:href="#ysr6b"/></g></g></svg>