<svg xmlns="http://www.w3.org/2000/svg" xmlns:xlink="http://www.w3.org/1999/xlink" width="60" height="59" viewBox="0 0 60 59"><defs><path id="9smga" d="M588.238 1097.89a44.719 44.719 0 0 1 4.11-7.487 6.52 6.52 0 0 0 4.162 1.665c-3.574 5.144-7.11 12.525-8.141 22.441a1.7 1.7 0 0 1-1.694 1.528h-1.086c-.872 0-1.604-.66-1.694-1.526-1.334-12.758-6.903-21.394-11.29-26.378a6.486 6.486 0 0 0 1.316-2.292c.454.1.92.15 1.388.15.368 0 .73-.041 1.087-.102 2.595 2.895 5.406 6.831 7.63 12v-7.253c.71.226 1.457.366 2.24.366.686 0 1.34-.12 1.972-.294zm25.41-15.379a3.543 3.543 0 0 1-1.777 6.612 3.533 3.533 0 0 1-1.77-.475c-.651-.377-1.8-1.313-2.91-2.416.402 1.513.636 2.974.636 3.727a3.542 3.542 0 0 1-3.544 3.543 3.544 3.544 0 0 1-3.546-3.543c0-.753.237-2.217.64-3.729-1.112 1.103-2.262 2.04-2.916 2.418a3.543 3.543 0 0 1-4.843-1.296 3.515 3.515 0 0 1-.413-1.172c.129-.34.244-.689.321-1.052.737.24 1.511.364 2.29.364a7.445 7.445 0 0 0 6.035-3.118 2.704 2.704 0 0 0 2.43 1.532 2.709 2.709 0 0 0 2.71-2.706 2.708 2.708 0 0 0-2.71-2.706c-.39 0-.76.086-1.096.235.199-2.286-.65-4.59-2.399-6.163a7.35 7.35 0 0 0 2.132-3.394 3.545 3.545 0 0 1 4.91 3.27c0 .751-.235 2.212-.636 3.723 1.109-1.1 2.256-2.036 2.909-2.411a3.544 3.544 0 0 1 3.547 6.135c-.653.376-2.038.901-3.551 1.311 1.513.41 2.898.935 3.551 1.311zm-44.106-13.536a7.357 7.357 0 0 0 2.2 3.591 7.33 7.33 0 0 0-1.311 1.606 2.875 2.875 0 0 0-2.712-1.94 2.881 2.881 0 0 0 0 5.76c.6 0 1.159-.185 1.62-.5-.118 1.449.162 2.943.943 4.293.26.45.576.856.918 1.235.039.33.066.629.066.851a3.544 3.544 0 0 1-3.545 3.543 3.544 3.544 0 0 1-3.546-3.543c0-.754.237-2.216.639-3.729-1.112 1.104-2.262 2.04-2.915 2.418a3.545 3.545 0 0 1-3.547-6.137c.654-.376 2.04-.902 3.553-1.311-1.513-.41-2.898-.936-3.551-1.313a3.538 3.538 0 0 1-1.298-4.838 3.546 3.546 0 0 1 4.843-1.297c.653.377 1.803 1.313 2.914 2.417-.401-1.513-.638-2.974-.638-3.728a3.544 3.544 0 0 1 3.546-3.542c.92 0 1.751.36 2.381.934-.817 1.624-1.036 3.458-.56 5.23zm3.303 11.33a4.457 4.457 0 0 1 1.635-6.09c.82-.474 2.564-1.135 4.467-1.65-1.902-.515-3.646-1.177-4.467-1.65a4.454 4.454 0 0 1-1.634-6.089 4.462 4.462 0 0 1 6.096-1.632c.821.474 2.268 1.653 3.665 3.04-.504-1.902-.803-3.742-.803-4.689a4.46 4.46 0 0 1 4.462-4.458 4.458 4.458 0 0 1 4.46 4.458c0 .945-.296 2.784-.8 4.686 1.396-1.387 2.84-2.563 3.66-3.036a4.46 4.46 0 0 1 6.095 1.631 4.456 4.456 0 0 1-1.633 6.09c-.82.473-2.563 1.134-4.465 1.65 1.902.515 3.645 1.176 4.466 1.65a4.455 4.455 0 0 1-2.234 8.318 4.442 4.442 0 0 1-2.227-.598c-.82-.473-2.266-1.65-3.663-3.039.505 1.905.802 3.743.802 4.69a4.459 4.459 0 0 1-4.461 4.457 4.46 4.46 0 0 1-4.462-4.457c0-.948.3-2.788.804-4.693-1.399 1.39-2.846 2.569-3.667 3.042a4.46 4.46 0 0 1-6.096-1.63zm13.42-12.272a4.535 4.535 0 0 0-4.536 4.533 4.534 4.534 0 0 0 4.535 4.532 4.534 4.534 0 0 0 4.536-4.532 4.535 4.535 0 0 0-4.536-4.533z"/></defs><g><g transform="translate(-556 -1057)"><use fill="#ea4cad" xlink:href="#9smga"/></g></g></svg>