<svg xmlns="http://www.w3.org/2000/svg" xmlns:xlink="http://www.w3.org/1999/xlink" width="46" height="63" viewBox="0 0 46 63"><defs><path id="b4iaa" d="M914.845 517.436c.279.387.164.928-.24 1.134l-4.482 2.524a.782.782 0 0 0-.38.824l.925 5.126c.076.464-.254.902-.722.927l-5.114.297a.788.788 0 0 0-.696.58l-1.355 5.022a.77.77 0 0 1-1.038.515l-4.734-1.983a.751.751 0 0 0-.873.206l-3.368 3.928a.771.771 0 0 1-1.164.013l-3.418-3.877a.79.79 0 0 0-.886-.193l-4.71 2.061a.769.769 0 0 1-1.05-.502l-1.43-5.01a.775.775 0 0 0-.71-.567l-5.114-.22c-.468-.012-.81-.45-.734-.914l.849-5.138a.774.774 0 0 0-.393-.825l-4.52-2.46a.797.797 0 0 1-.265-1.146l2.962-4.25a.805.805 0 0 0-.013-.914l-3.025-4.211a.8.8 0 0 1 .253-1.147l4.481-2.524a.783.783 0 0 0 .38-.824l-.924-5.126c-.076-.464.253-.902.722-.927l5.114-.297a.788.788 0 0 0 .696-.58l1.354-5.022a.77.77 0 0 1 1.039-.515l4.734 1.984a.751.751 0 0 0 .873-.207l3.368-3.928a.77.77 0 0 1 1.164-.013l3.418 3.877a.79.79 0 0 0 .886.193l4.71-2.06a.769.769 0 0 1 1.05.502l1.417 5.022c.09.323.38.554.71.567l5.113.219c.469.013.81.45.735.914l-.848 5.14a.774.774 0 0 0 .392.824l4.52 2.46c.405.218.53.76.265 1.146l-2.962 4.25a.806.806 0 0 0 .012.914zm-22.836 9.621c7.658 0 13.899-6.336 13.899-14.141 0-7.791-6.24-14.141-13.9-14.141-7.658 0-13.899 6.35-13.899 14.141 0 7.792 6.241 14.141 13.9 14.141zm16.38 21.276a.58.58 0 0 1-.71.734l-4.594-1.365a.563.563 0 0 0-.608.206l-2.95 3.851a.568.568 0 0 1-1-.18l-4.05-12.776c.089-.065.165-.142.253-.219l2.52-2.344 3.265 1.005c.368.103.76.167 1.152.167a3.976 3.976 0 0 0 2.861-1.21zm-19.089-9.736c.075.077.164.154.253.219l-4.05 12.775a.569.569 0 0 1-1 .181l-2.95-3.85a.555.555 0 0 0-.608-.207l-4.595 1.366a.577.577 0 0 1-.709-.735l3.86-12.144a3.996 3.996 0 0 0 4.014 1.043l3.266-1.005zm10.95-29.197c.987.077 1.38 1.326.62 1.97l-4.013 3.452 1.253 5.19c.24.98-.81 1.752-1.646 1.224l-4.455-2.82-4.456 2.82c-.835.528-1.886-.245-1.646-1.224l1.253-5.19-4.013-3.452c-.746-.644-.354-1.893.633-1.97l5.241-.386 1.975-4.946c.367-.927 1.67-.927 2.038 0l1.975 4.946z"/></defs><g><g transform="translate(-869 -489)"><use fill="#e8e8e8" xlink:href="#b4iaa"/></g></g></svg>