<svg xmlns="http://www.w3.org/2000/svg" id="Группа_1" data-name="Группа 1" viewBox="0 0 125 125">
  <defs>
    <style>
      .cls-2{fill-rule:evenodd}
    </style>
  </defs>
  <circle id="Эллипс_2" cx="63" cy="62" r="58" fill="#dcdcdc" fill-opacity="0" stroke="#d4d4d4" stroke-linejoin="round" data-name="Эллипс 2"/>
  <path id="КОНТРОЛЬ" d="M18.527 55.038l-4.07-4.605-.263 1.73 4.081 4.62-4.675-.711-.24 1.578 9.655 1.468.24-1.578-4.894-.74 5.5-3.232.282-1.856zm5.294-21.911a4.3 4.3 0 0 0-2.915 2.137 4.393 4.393 0 0 0-.73 3.568 5.292 5.292 0 0 0 2.5 3 5.374 5.374 0 0 0 3.785 1 4.342 4.342 0 0 0 2.928-2.164 4.313 4.313 0 0 0 .693-3.56 5.342 5.342 0 0 0-2.491-2.993 5.338 5.338 0 0 0-3.77-.988zm-2.137 5.2A2.592 2.592 0 0 1 22.062 36a2.539 2.539 0 0 1 1.931-1.31 4.4 4.4 0 0 1 2.686.854 4.388 4.388 0 0 1 1.93 2.083 2.963 2.963 0 0 1-2.316 3.629 4.379 4.379 0 0 1-2.7-.851 4.337 4.337 0 0 1-1.909-2.08zM39.3 18.062l-1.344.873 2.176 3.35-3.775 2.453-2.176-3.35-1.339.87 5.32 8.189 1.339-.87-2.4-3.691 3.775-2.453 2.4 3.691 1.344-.873zm15.987-3.933l2.825-.516-.246-1.347-7.221 1.319.246 1.347 2.825-.516 1.509 8.26 1.57-.287zm19.832.082a4.254 4.254 0 0 0-2.555-1.246l-2.764-.524-1.819 9.595 1.568.3.681-3.59 1 .189a4.414 4.414 0 0 0 2.954-.269 2.848 2.848 0 0 0 1.416-2.12 2.686 2.686 0 0 0-.482-2.335zm-4-.16l1.089.207a2.54 2.54 0 0 1 1.5.706 1.516 1.516 0 0 1 .272 1.329 1.556 1.556 0 0 1-.813 1.206 3.039 3.039 0 0 1-1.852.084l-.833-.158zM93.56 23.61a4.3 4.3 0 0 0-2.044-2.981 4.394 4.394 0 0 0-3.543-.842 5.292 5.292 0 0 0-3.074 2.4 5.375 5.375 0 0 0-1.117 3.752 4.342 4.342 0 0 0 2.071 3 4.313 4.313 0 0 0 3.536.8 5.342 5.342 0 0 0 3.071-2.4 5.336 5.336 0 0 0 1.101-3.728zm-5.128-2.3a2.592 2.592 0 0 1 2.314.451A2.539 2.539 0 0 1 92 23.733a4.4 4.4 0 0 1-.939 2.657 4.387 4.387 0 0 1-2.143 1.863 2.963 2.963 0 0 1-3.554-2.429 4.379 4.379 0 0 1 .936-2.671 4.335 4.335 0 0 1 2.133-1.842zm19.5 17.882l-2.977-4.866q-3.2 1.434-5.058 2.19a12.131 12.131 0 0 1-2.49.826.834.834 0 0 1-.887-.342 1.838 1.838 0 0 1-.244-.72l-1.134.694a2.6 2.6 0 0 0 .342.879 1.943 1.943 0 0 0 1.293.994 4.481 4.481 0 0 0 2.3-.36q1.481-.535 5.4-2.315l1.45 2.37-7.162 4.382.835 1.365zm.627 19.048a4.68 4.68 0 0 0 .319-2.919l-.2-1.368 3.926-.575-.231-1.58-9.663 1.414.441 3.014a4.478 4.478 0 0 0 1.148 2.657 2.606 2.606 0 0 0 2.305.638 2.487 2.487 0 0 0 1.953-1.281zm-1.2-4.094l.168 1.15a3.509 3.509 0 0 1-.094 1.89 1.288 1.288 0 0 1-1.063.716 1.347 1.347 0 0 1-1.29-.4 3.022 3.022 0 0 1-.613-1.581l-.2-1.328z" class="cls-2"/>
  <path id="Фигура_4" fill="#424242" fill-rule="evenodd" d="M58.992 68.5a.852.852 0 0 1-1.2 0l-4.221-4.213-1.2 1.2 6.026 6.028 15.66-15.66-1.213-1.205zm25.057-11.823l.671-6.429-5.907-2.628a.853.853 0 0 1-.433-.433l-2.627-5.907-6.43.672a.859.859 0 0 1-.588-.159L63.5 38l-5.235 3.794a.86.86 0 0 1-.588.159l-6.431-.672-2.627 5.907a.846.846 0 0 1-.433.432l-5.906 2.628.671 6.429a.854.854 0 0 1-.157.588L39 62.5l3.794 5.235a.855.855 0 0 1 .157.589l-.671 6.428 5.907 2.628a.853.853 0 0 1 .433.433l2.627 5.907 6.431-.672h.085a.846.846 0 0 1 .5.163L63.5 87l5.235-3.793a.85.85 0 0 1 .588-.158l6.43.672 2.628-5.907a.849.849 0 0 1 .433-.432l5.907-2.629-.671-6.429a.85.85 0 0 1 .157-.589L88 62.5l-3.793-5.235a.849.849 0 0 1-.157-.588zm-8.193-.218L58.992 73.323a.852.852 0 0 1-1.2 0l-7.231-7.231a.852.852 0 0 1 0-1.206l2.411-2.4a.851.851 0 0 1 1.2 0L58.39 66.7l13.851-13.856a.851.851 0 0 1 1.2 0l2.41 2.41a.851.851 0 0 1 0 1.2zm0 0" data-name="Фигура 4"/>
  <path id="КАЧЕСТВА_svg_version_1.1_xmlns_http:_www.w3.org_2000_svg" d="M24.216 84.694l6.049 1.086-.865-1.52-6.067-1.091 4.108-2.343-.791-1.387-8.482 4.839.791 1.387 4.3-2.453-2.307 5.946.93 1.63zm8.645 17.585l3.906-9.708-1.283-1.171-9.306 4.785 1.244 1.134 2.533-1.361 2.759 2.516-1.106 2.661zm-1.634-7.022l2.366-1.287a14.993 14.993 0 0 0 1.6-.972q-.131.242-.387.786t-.362.809l-1.114 2.581zm19.038 5.312l-1.465-.648-1.853 4.191a11.67 11.67 0 0 1-1.5-.219 6.4 6.4 0 0 1-1.177-.393 1.713 1.713 0 0 1-.982-.843 1.535 1.535 0 0 1 .114-1.191l1.453-3.287-1.466-.648-1.6 3.629a2.312 2.312 0 0 0-.059 1.993 3.16 3.16 0 0 0 1.689 1.459 7.267 7.267 0 0 0 1.355.445 11.525 11.525 0 0 0 1.656.228l-1.577 3.568 1.466.648zM61.1 111l-3.906-.412.322-3.049 3.66.386.14-1.328-3.66-.387.279-2.644 3.906.413.142-1.342-5.494-.58-1.025 9.712 5.494.58zm12.449-8.245a8.644 8.644 0 0 1 1.1.2l.311-1.414a6.147 6.147 0 0 0-2.834-.089 4.88 4.88 0 0 0-2.317 1.068 3.981 3.981 0 0 0-1.25 2.026 6 6 0 0 0-.04 2.722 5.437 5.437 0 0 0 1.836 3.431 4.166 4.166 0 0 0 3.48.648 7.334 7.334 0 0 0 2.475-.923l-.261-1.344q-.58.31-1.127.542a5.816 5.816 0 0 1-1.157.35 2.676 2.676 0 0 1-2.33-.487 5.118 5.118 0 0 1-1-5.317 2.633 2.633 0 0 1 1.939-1.37 3.8 3.8 0 0 1 1.172-.043zM83.734 98.6l2.53-1.36-.648-1.206-6.467 3.475.648 1.206 2.53-1.359 3.974 7.4 1.406-.756zm13.15.956l2.468-2.52a3.955 3.955 0 0 0 1.256-2.347 2.509 2.509 0 0 0-.83-2.1 2.314 2.314 0 0 0-1.444-.736 2.521 2.521 0 0 0-1.605.546l-.048-.047a1.971 1.971 0 0 0 .377-1.407 2.25 2.25 0 0 0-.708-1.311 2.058 2.058 0 0 0-1.955-.657 5.5 5.5 0 0 0-2.46 1.672l-2.029 2.071zm-4.906-7.039l.968-.988a3.108 3.108 0 0 1 1.325-.914 1.081 1.081 0 0 1 1.059.341 1.215 1.215 0 0 1 .448 1.084 2.63 2.63 0 0 1-.8 1.267l-1.075 1.1zm3.985 1.64a2.761 2.761 0 0 1 1.37-.874 1.287 1.287 0 0 1 1.167.417 1.417 1.417 0 0 1 .509 1.213 2.5 2.5 0 0 1-.784 1.35l-1.187 1.212-2.21-2.164zM110.3 80.29l-10.41-1.068-.769 1.557L106.3 88.4l.745-1.509-2.008-2.058 1.654-3.348 2.863.327zm-6.3 3.513l-1.891-1.918a14.93 14.93 0 0 0-1.377-1.269c.18.039.467.09.863.154s.688.105.877.124l2.789.357z" class="cls-2" data-name="КАЧЕСТВА &lt;svg version=&quot;1.1&quot; xmlns=&quot;http://www.w3.org/2000/svg"/>
</svg>
