<svg xmlns="http://www.w3.org/2000/svg" xmlns:xlink="http://www.w3.org/1999/xlink" width="98" height="98" viewBox="0 0 98 98"><defs><path id="hea5a" d="M319 843c27.062 0 49 21.938 49 49s-21.938 49-49 49-49-21.938-49-49 21.938-49 49-49z"/><path id="hea5b" d="M298.05 898.938a4.98 4.98 0 0 0 3.17-1.434l4.097-4.072v12.758c0 .451-.37.81-.814.81h-5.64a.812.812 0 0 1-.814-.81zM312 897.191a4.929 4.929 0 0 0 3.393 1.435v7.564c0 .451-.37.81-.813.81h-5.64a.812.812 0 0 1-.814-.81v-12.85zm6.204.635a4.81 4.81 0 0 0 .805-.644l6.462-6.425v15.433c0 .451-.37.81-.813.81h-5.64a.812.812 0 0 1-.814-.81zm16.92-16.435c.101.092.24.23.425.385v24.414c0 .451-.37.81-.814.81h-5.64a.812.812 0 0 1-.813-.81v-18.236l6.721-6.683zm4.493-11.96c.286.295.407.709.379 1.242l-.12 2.546c-.083 1.7-.167 3.391-.24 5.083-.02.395-.093.901-.49 1.296-.112.11-.24.202-.389.285-.222.12-.435.174-.647.174-.509 0-.841-.33-1.082-.569l-2.025-2.004-17.9 17.795a2.29 2.29 0 0 1-1.608.663c-.61 0-1.183-.24-1.609-.663l-7.128-7.086-7.461 7.418a2.274 2.274 0 0 1-3.208 0l-.426-.423a2.242 2.242 0 0 1 0-3.19l9.496-9.431a2.25 2.25 0 0 1 1.599-.662c.61 0 1.183.239 1.609.662l7.128 7.088 15.866-15.784a93.56 93.56 0 0 1-1.378-1.37l-.657-.661c-.258-.257-.804-.8-.415-1.636.073-.166.166-.304.286-.423.379-.377.86-.395 1.211-.414 2.626-.12 5.243-.248 7.868-.367h.148c.518 0 .925.147 1.193.432z"/></defs><g><g transform="translate(-270 -843)"><use fill="#306e85" xlink:href="#hea5a"/></g><g transform="translate(-270 -843)"><use fill="#fff" xlink:href="#hea5b"/></g></g></svg>