<svg xmlns="http://www.w3.org/2000/svg" xmlns:xlink="http://www.w3.org/1999/xlink" width="16" height="9" viewBox="0 0 16 9"><defs><path id="ogdma" d="M1468.828 794.87h.956s.29-.032.436-.187c.136-.142.131-.41.131-.41s-.019-1.251.577-1.436c.588-.182 1.341 1.21 2.14 1.746.605.405 1.064.316 1.064.316l2.137-.03s1.118-.067.588-.924c-.043-.07-.31-.635-1.59-1.794-1.34-1.214-1.16-1.016.455-3.116.983-1.278 1.376-2.058 1.253-2.392-.117-.318-.84-.234-.84-.234l-2.404.013s-.178-.023-.312.054c-.128.076-.211.252-.211.252s-.381.99-.89 1.83c-1.07 1.775-1.5 1.869-1.674 1.759-.408-.257-.306-1.033-.306-1.583 0-1.72.268-2.438-.52-2.623-.263-.062-.455-.102-1.124-.11-.858-.008-1.585.004-1.996.2-.274.13-.485.422-.356.439.16.02.52.095.71.348.247.327.238 1.063.238 1.063s.142 2.025-.33 2.276c-.326.173-.77-.18-1.726-1.79-.489-.825-.859-1.737-.859-1.737s-.07-.17-.198-.26c-.154-.111-.37-.146-.37-.146l-2.286.014s-.343.01-.469.155c-.112.13-.009.397-.009.397s1.79 4.086 3.816 6.145c1.86 1.888 3.97 1.765 3.97 1.765z"/></defs><g><g transform="translate(-1461 -786)"><use fill="#fff" xlink:href="#ogdma"/></g></g></svg>