<svg xmlns="http://www.w3.org/2000/svg" xmlns:xlink="http://www.w3.org/1999/xlink" width="17" height="17" viewBox="0 0 17 17"><defs><path id="5wj6a" d="M1514 787.312v6.375a5.313 5.313 0 0 1-5.313 5.313h-6.375a5.313 5.313 0 0 1-5.312-5.313v-6.375a5.313 5.313 0 0 1 5.312-5.312h6.375a5.313 5.313 0 0 1 5.313 5.312zm-1.594 0a3.723 3.723 0 0 0-3.719-3.719h-6.375a3.723 3.723 0 0 0-3.719 3.72v6.374a3.723 3.723 0 0 0 3.72 3.719h6.374a3.723 3.723 0 0 0 3.719-3.719zm-2.656 3.188a4.25 4.25 0 1 1-8.5 0 4.25 4.25 0 0 1 8.5 0zm-1.594 0a2.66 2.66 0 0 0-2.656-2.657 2.66 2.66 0 0 0-2.657 2.657 2.66 2.66 0 0 0 2.657 2.656 2.66 2.66 0 0 0 2.656-2.656zm1.913-5.135a.566.566 0 1 1 0 1.132.566.566 0 0 1 0-1.132z"/></defs><g><g transform="translate(-1497 -782)"><use fill="#fff" xlink:href="#5wj6a"/></g></g></svg>