<svg xmlns="http://www.w3.org/2000/svg" xmlns:xlink="http://www.w3.org/1999/xlink" width="12" height="19" viewBox="0 0 12 19"><defs><path id="hjpua" d="M1572.87 792.976c-.148-.11-.301-.217-.436-.34-.523-.479-.577-1.026-.163-1.59.355-.483.95-.612 1.568-.335.12.054.234.121.343.193 2.23 1.455 5.29 1.496 7.53.065.221-.161.457-.293.732-.36.535-.13 1.032.056 1.319.5.328.507.322 1.002-.08 1.396-.62.603-1.364 1.04-2.19 1.346-.782.287-1.638.432-2.486.529.129.132.188.197.269.273 1.15 1.1 2.307 2.194 3.453 3.296.39.376.472.842.258 1.28-.236.476-.763.79-1.279.757-.327-.021-.582-.176-.81-.394-.868-.83-1.752-1.646-2.604-2.492-.247-.246-.366-.2-.584.014-.874.855-1.762 1.697-2.655 2.534-.401.376-.879.444-1.343.229-.495-.227-.81-.707-.785-1.19.016-.326.184-.576.42-.799 1.14-1.08 2.275-2.164 3.411-3.247.076-.072.145-.148.255-.26-1.549-.154-2.946-.516-4.143-1.405zm.073-7.178c.015-2.662 2.283-4.806 5.074-4.798 2.798.007 5.042 2.182 5.029 4.87-.014 2.626-2.297 4.755-5.089 4.746-2.763-.008-5.03-2.187-5.014-4.818zm5.055-2.342c-1.384-.002-2.488 1.057-2.477 2.376.01 1.301 1.114 2.335 2.49 2.33 1.371-.005 2.462-1.052 2.458-2.358-.005-1.306-1.1-2.347-2.47-2.348z"/></defs><g><g transform="translate(-1572 -781)"><use fill="#fff" xlink:href="#hjpua"/></g></g></svg>