<svg xmlns="http://www.w3.org/2000/svg" xmlns:xlink="http://www.w3.org/1999/xlink" viewBox="0 0 88 166">
  <defs>
    <path id="a" d="M64.202 40.184c4.301-11.71 14.316-16.15 14.316-16.15s7.49 10.023 3.283 21.457c-4.162 11.388-15.262 14.812-15.262 14.812s-6.62-8.435-2.337-20.119zm-34.273 14.97C23.28 44.945 28.36 33.52 28.36 33.52s10.781 2.16 17.57 12.616c6.799 10.493 2.235 20.155 2.235 20.155s-11.586-.905-18.235-11.139zm16.59 44.914S35.118 97.65 29.9 86.696c-5.19-11 1.31-21.668 1.31-21.668s10.407 3.497 15.784 14.774c5.33 11.287-.477 20.266-.477 20.266zm-11.475 5.011c4.274 11.711-2.375 20.11-2.375 20.11s-11.1-3.424-15.261-14.85c-4.133-11.424 3.394-21.446 3.394-21.446s9.969 4.466 14.242 16.186zm-32.87 26.892c-.663-12.117 9.492-19.573 9.492-19.573s8.257 7.096 8.912 19.536c.701 12.44-8.145 18.605-8.145 18.605s-9.604-6.46-10.258-18.568zm36.34-109.7C35.484 10.192 41.328 1 41.328 1s11.876 4.254 14.794 16.048c2.964 11.785-4.386 20.69-4.386 20.69s-10.22-3.386-13.222-15.466zm31.822 43.836c7.593-9.948 18.516-11.286 18.516-11.286s4.17 11.794-3.245 21.456c-7.416 9.69-19.04 9.727-19.04 9.727s-3.834-9.985 3.769-19.897zM66.24 93.756c9.65-8.001 20.564-6.921 20.564-6.921s1.393 12.403-7.996 20.229c-9.426 7.816-20.75 5.297-20.75 5.297s-1.459-10.567 8.182-18.605zm-7.63 25.13c11.651-4.763 21.732-.471 21.732-.471s-2.488 12.218-13.84 16.87c-11.362 4.65-21.405-1.117-21.405-1.117s1.86-10.53 13.513-15.283zm2.478 26.42s-3.9 11.86-15.776 15.145c-11.839 3.276-21.078-3.683-21.078-3.683s3.067-10.197 15.233-13.547c12.13-3.36 21.62 2.086 21.62 2.086zm-5.181-102.99c.29.61 28.091 58.832-50.01 124.696l-3.91-4.513C76.322 99.81 51.598 47.143 50.503 44.946z"/>
  </defs>
  <use fill="#e8e8e8" transform="translate(-2 -1)" xlink:href="#a"/>
</svg>
