<?xml version="1.0" encoding="utf-8"?>
<!-- Generator: Adobe Illustrator 22.1.0, SVG Export Plug-In . SVG Version: 6.00 Build 0)  -->
<svg version="1.1" id="Слой_1" xmlns="http://www.w3.org/2000/svg" xmlns:xlink="http://www.w3.org/1999/xlink" x="0px" y="0px"
	 viewBox="0 0 9.4 18" style="enable-background:new 0 0 9.4 18;" xml:space="preserve">
<style type="text/css">
	.st0{fill:#E8E8E8;}
</style>
<g>
	<path class="st0" d="M6.9,6.4c0,0,1.2-0.4,1.6-1.6C9,3.6,8.2,2.5,8.2,2.5S7.1,3,6.7,4.2C6.2,5.5,6.9,6.4,6.9,6.4L6.9,6.4z M6.9,6.4
		"/>
	<path class="st0" d="M4.9,7.1c0,0,0.5-1-0.2-2.2C4,3.8,2.8,3.5,2.8,3.5S2.3,4.8,3,5.9C3.7,7,4.9,7.1,4.9,7.1L4.9,7.1z M4.9,7.1"/>
	<path class="st0" d="M4.8,8.5C4.2,7.3,3.1,6.9,3.1,6.9S2.4,8.1,3,9.3c0.6,1.2,1.8,1.4,1.8,1.4S5.4,9.8,4.8,8.5L4.8,8.5z M4.8,8.5"
		/>
	<path class="st0" d="M2,9.5c0,0-0.8,1.1-0.4,2.3c0.4,1.2,1.6,1.6,1.6,1.6s0.7-0.9,0.3-2.2C3.1,10,2,9.5,2,9.5L2,9.5z M2,9.5"/>
	<path class="st0" d="M1.1,16.2c0,0,0.9-0.7,0.9-2c-0.1-1.3-1-2.1-1-2.1s-1.1,0.8-1,2.1C0.1,15.5,1.1,16.2,1.1,16.2L1.1,16.2z
		 M1.1,16.2"/>
	<g>
		<path class="st0" d="M5.3,4c0,0,0.8-1,0.5-2.2C5.5,0.5,4.2,0,4.2,0S3.6,1,3.9,2.3C4.2,3.6,5.3,4,5.3,4L5.3,4z M5.3,4"/>
		<path class="st0" d="M6.9,9.2c0,0,1.2,0,2-1.1c0.8-1,0.3-2.3,0.3-2.3S8.1,6,7.3,7.1C6.5,8.1,6.9,9.2,6.9,9.2L6.9,9.2z M6.9,9.2"/>
	</g>
	<path class="st0" d="M6,12.1c0,0,1.2,0.3,2.2-0.6c1-0.8,0.9-2.2,0.9-2.2s-1.2-0.1-2.2,0.8C5.8,10.9,6,12.1,6,12.1L6,12.1z M6,12.1"
		/>
	<path class="st0" d="M4.6,14.4c0,0,1.1,0.6,2.3,0.1c1.2-0.5,1.5-1.8,1.5-1.8s-1.1-0.5-2.3,0.1C4.8,13.3,4.6,14.4,4.6,14.4L4.6,14.4
		z M4.6,14.4"/>
	<path class="st0" d="M4,15.4c-1.3,0.4-1.6,1.5-1.6,1.5s1,0.8,2.3,0.4c1.3-0.4,1.7-1.6,1.7-1.6S5.3,15,4,15.4L4,15.4z M4,15.4"/>
	<path class="st0" d="M5.2,4.8C5.3,5,7.9,10.7,0,17.5L0.4,18C8.8,10.9,5.8,4.5,5.8,4.5L5.2,4.8L5.2,4.8z M5.2,4.8"/>
</g>
</svg>
