<svg xmlns="http://www.w3.org/2000/svg" xmlns:xlink="http://www.w3.org/1999/xlink" width="12" height="15" viewBox="0 0 12 15"><defs><path id="xf41a" d="M335 6359.432c0 3.718-5.37 9.175-5.598 9.405a.579.579 0 0 1-.804 0c-.229-.23-5.598-5.687-5.598-9.405 0-2.995 2.692-5.432 6-5.432s6 2.437 6 5.432zm-2.981 0c0-1.507-1.355-2.733-3.02-2.733-1.664 0-3.018 1.226-3.018 2.733 0 1.507 1.354 2.733 3.019 2.733 1.664 0 3.019-1.226 3.019-2.733z"/></defs><g><g transform="translate(-323 -6354)"><use fill="#b3b3b3" xlink:href="#xf41a"/></g></g></svg>