<?xml version="1.0" encoding="utf-8"?>
<!-- Generator: Adobe Illustrator 22.1.0, SVG Export Plug-In . SVG Version: 6.00 Build 0)  -->
<svg version="1.1" id="Слой_1" xmlns="http://www.w3.org/2000/svg" xmlns:xlink="http://www.w3.org/1999/xlink" x="0px" y="0px"
	 viewBox="0 0 9.4 18" style="enable-background:new 0 0 9.4 18;" xml:space="preserve">
<style type="text/css">
	.st0{fill:#E8E8E8;}
</style>
<g>
	<path class="st0" d="M2.5,6.4c0,0,0.7-0.9,0.3-2.2C2.3,3,1.2,2.5,1.2,2.5S0.4,3.6,0.9,4.8C1.3,6.1,2.5,6.4,2.5,6.4L2.5,6.4z
		 M2.5,6.4"/>
	<path class="st0" d="M4.5,7.1c0,0,1.2-0.1,1.9-1.2c0.7-1.1,0.2-2.3,0.2-2.3S5.4,3.8,4.7,4.9C4,6,4.5,7.1,4.5,7.1L4.5,7.1z M4.5,7.1
		"/>
	<path class="st0" d="M4.6,8.5c-0.6,1.2,0,2.2,0,2.2s1.2-0.3,1.8-1.4C7,8.1,6.3,6.9,6.3,6.9S5.2,7.3,4.6,8.5L4.6,8.5z M4.6,8.5"/>
	<path class="st0" d="M7.4,9.5c0,0-1.1,0.5-1.5,1.8c-0.5,1.3,0.3,2.2,0.3,2.2s1.2-0.4,1.6-1.6C8.2,10.6,7.4,9.5,7.4,9.5L7.4,9.5z
		 M7.4,9.5"/>
	<path class="st0" d="M8.3,16.2c0,0,1-0.7,1.1-2c0.1-1.3-1-2.1-1-2.1s-0.9,0.8-1,2.1C7.4,15.5,8.3,16.2,8.3,16.2L8.3,16.2z
		 M8.3,16.2"/>
	<g>
		<path class="st0" d="M4.1,4c0,0,1.1-0.4,1.4-1.7C5.8,1,5.2,0,5.2,0S3.9,0.5,3.6,1.7C3.3,3,4.1,4,4.1,4L4.1,4z M4.1,4"/>
		<path class="st0" d="M2.5,9.2c0,0,0.4-1.1-0.4-2.2c-0.8-1.1-2-1.2-2-1.2s-0.4,1.3,0.3,2.3C1.3,9.2,2.5,9.2,2.5,9.2L2.5,9.2z
			 M2.5,9.2"/>
	</g>
	<path class="st0" d="M3.4,12.1c0,0,0.2-1.1-0.9-2c-1-0.9-2.2-0.8-2.2-0.8s-0.2,1.3,0.9,2.2C2.2,12.3,3.4,12.1,3.4,12.1L3.4,12.1z
		 M3.4,12.1"/>
	<path class="st0" d="M4.8,14.4c0,0-0.2-1.1-1.4-1.7C2.1,12.3,1,12.7,1,12.7s0.3,1.3,1.5,1.8C3.7,15.1,4.8,14.4,4.8,14.4L4.8,14.4z
		 M4.8,14.4"/>
	<path class="st0" d="M5.4,15.4c-1.3-0.4-2.3,0.2-2.3,0.2s0.4,1.3,1.7,1.6C6,17.6,7,16.9,7,16.9S6.7,15.8,5.4,15.4L5.4,15.4z
		 M5.4,15.4"/>
	<path class="st0" d="M4.2,4.8L3.6,4.5c0,0.1-3,6.4,5.3,13.5l0.4-0.5C1.5,10.7,4.1,5,4.2,4.8L4.2,4.8z M4.2,4.8"/>
</g>
</svg>
