<svg xmlns="http://www.w3.org/2000/svg" xmlns:xlink="http://www.w3.org/1999/xlink" width="19" height="19" viewBox="0 0 19 19"><defs><path id="812va" d="M770.454 28.517c.35.693.546 1.475.546 2.301 0 2.863-2.352 5.182-5.256 5.182-.898 0-1.744-.371-2.484-.763a9.27 9.27 0 0 1-1.66.15c-5.005 0-9.062-3.852-9.062-8.788 0-.615.064-1.216.184-1.795a5.113 5.113 0 0 1-.722-2.622c0-2.862 2.353-5.182 5.256-5.182a5.28 5.28 0 0 1 2.796.795 9.26 9.26 0 0 1 1.549-.13c5.006 0 9.062 4 9.062 8.934 0 .659-.072 1.299-.209 1.918z"/><path id="812vb" d="M765.42 30.248c-.348.498-.858.889-1.53 1.17-.671.283-1.467.423-2.387.423-1.104 0-2.014-.192-2.732-.578a3.54 3.54 0 0 1-1.24-1.11c-.317-.462-.476-.912-.476-1.35 0-.253.095-.47.285-.65.191-.183.434-.273.729-.273.239 0 .441.07.606.212.166.14.307.349.423.627.143.33.296.604.463.825.164.22.397.403.697.546.3.142.695.215 1.183.215.67 0 1.216-.144 1.637-.433.419-.288.63-.65.63-1.082 0-.342-.114-.622-.34-.834a2.226 2.226 0 0 0-.878-.49 15.55 15.55 0 0 0-1.439-.36c-.803-.173-1.476-.377-2.017-.609-.541-.233-.972-.55-1.29-.95-.318-.404-.476-.903-.476-1.498 0-.57.167-1.074.503-1.516.336-.441.82-.78 1.457-1.018.636-.238 1.384-.356 2.243-.356.687 0 1.28.079 1.782.235.501.158.916.367 1.246.628.331.261.573.534.725.821.153.285.23.567.23.838a.952.952 0 0 1-.286.673c-.19.2-.428.3-.713.3-.26 0-.457-.06-.592-.18-.135-.12-.281-.316-.438-.588-.204-.39-.447-.694-.733-.912-.285-.219-.742-.328-1.373-.328-.584 0-1.056.118-1.415.356-.358.236-.538.522-.538.856a.83.83 0 0 0 .183.535c.121.151.29.28.504.387.213.108.43.192.648.255.218.06.58.15 1.084.267.63.136 1.2.287 1.712.45.51.165.947.366 1.305.599.358.235.639.533.84.893.2.36.301.8.301 1.321a2.87 2.87 0 0 1-.522 1.683z"/></defs><g><g transform="translate(-752 -17)"><use fill="#48b8dd" xlink:href="#812va"/></g><g transform="translate(-752 -17)"><use fill="#fff" xlink:href="#812vb"/></g></g></svg>