<svg xmlns="http://www.w3.org/2000/svg" xmlns:xlink="http://www.w3.org/1999/xlink">
  <symbol id="check">
    <defs>
      <path id="a" d="M990.922 1333.939l-10.537 10.978a.23.23 0 0 1-.335 0l-5.983-6.234a.253.253 0 0 1 0-.35l1.454-1.514a.23.23 0 0 1 .335 0l4.362 4.544 8.916-9.289a.23.23 0 0 1 .335 0l1.453 1.514a.255.255 0 0 1 0 .35z"/>
    </defs>
    <use fill="#adadad" transform="translate(-974 -1332)" xlink:href="#a"/>
  </symbol>
  <symbol id="tel">
    <defs>
      <path id="a" d="M1162.662 103.877l-2.316-2.325c-.462-.462-1.225-.447-1.703.032l-1.167 1.17-.23-.127c-.738-.411-1.746-.972-2.808-2.037-1.064-1.07-1.625-2.083-2.034-2.824-.044-.077-.085-.152-.125-.225l.783-.784.385-.387c.478-.48.492-1.247.031-1.709l-2.317-2.325c-.46-.462-1.224-.448-1.703.032l-.652.659.017.018c-.219.28-.401.603-.537.952-.125.332-.204.649-.239.965-.307 2.545.852 4.87 3.997 8.026 4.347 4.362 7.85 4.033 8.002 4.016.328-.039.644-.118.965-.242.344-.135.666-.318.944-.538l.015.013.662-.65c.476-.48.49-1.247.03-1.71z"/>
    </defs>
    <use fill="#adadad" transform="translate(-1148 -92)" xlink:href="#a"/>
  </symbol>
  <symbol id="search">
    <defs>
      <path id="a" d="M546.776 105.66a.77.77 0 0 1-.022 1.117.83.83 0 0 1-.567.22.823.823 0 0 1-.59-.242l-3.727-3.74a6.357 6.357 0 0 1-3.596 1.096c-3.46 0-6.274-2.715-6.274-6.054 0-3.338 2.815-6.053 6.274-6.053 3.461 0 6.276 2.715 6.276 6.053a5.911 5.911 0 0 1-1.472 3.893zm-8.502-12.077c-2.556 0-4.637 2.008-4.637 4.474 0 2.467 2.08 4.475 4.637 4.475 2.558 0 4.639-2.008 4.639-4.475 0-2.466-2.081-4.474-4.639-4.474z"/>
    </defs>
    <use fill="#767676" transform="translate(-532 -92)" xlink:href="#a"/>
  </symbol>
  <symbol id="letter">
    <defs>
      <path id="a" d="M642.727 103.962l-5.367-5.653 5.309-4.372c.207.309.33.671.33 1.063v8c0 .35-.104.676-.272.962zm-15.614-10.71a2.19 2.19 0 0 1 1.012-.252h12.75c.368 0 .71.095 1.013.252l-7.388 6.084zm14.883 11.44a2.194 2.194 0 0 1-1.121.308h-12.75c-.413 0-.795-.115-1.12-.308l5.435-5.725 1.71 1.41a.55.55 0 0 0 .35.123.55.55 0 0 0 .35-.123l1.71-1.41zM631.64 98.31l-5.367 5.653A1.887 1.887 0 0 1 626 103v-8c0-.392.124-.754.33-1.063z"/>
    </defs>
    <use fill="#b3b3b3" transform="translate(-626 -93)" xlink:href="#a"/>
  </symbol>
  <symbol id="clock">
    <defs>
      <path id="a" d="M877.5 92a7.5 7.5 0 1 1 0 15 7.5 7.5 0 0 1 0-15zm.518 8.416v-5.304a.519.519 0 0 0-1.037 0v4.477l-2.136-1.007a.52.52 0 0 0-.442.938l2.876 1.357a.573.573 0 0 0 .086.03l.027.007a.51.51 0 0 0 .088.01l.02.002a.533.533 0 0 0 .188-.036l.018-.007a.493.493 0 0 0 .077-.042l.019-.013a.493.493 0 0 0 .054-.045l.017-.016a.528.528 0 0 0 .055-.067l.003-.004a.482.482 0 0 0 .038-.067l.004-.01.019-.054c.004-.015.01-.03.013-.045.004-.014.005-.03.007-.044l.006-.06z"/>
    </defs>
    <use fill="#b3b3b3" transform="translate(-870 -92)" xlink:href="#a"/>
  </symbol>
</svg>
