<svg xmlns="http://www.w3.org/2000/svg" xmlns:xlink="http://www.w3.org/1999/xlink">
  <symbol id="check">
    <defs>
      <path id="a" d="M990.922 1333.939l-10.537 10.978a.23.23 0 0 1-.335 0l-5.983-6.234a.253.253 0 0 1 0-.35l1.454-1.514a.23.23 0 0 1 .335 0l4.362 4.544 8.916-9.289a.23.23 0 0 1 .335 0l1.453 1.514a.255.255 0 0 1 0 .35z"/>
    </defs>
    <use fill="#adadad" transform="translate(-974 -1332)" xlink:href="#a"/>
  </symbol>
  <symbol id="tel" viewBox="0 0 15 15">
    <path d="M1162.662 103.877l-2.316-2.325c-.462-.462-1.225-.447-1.703.032l-1.167 1.17-.23-.127c-.738-.411-1.746-.972-2.808-2.037-1.064-1.07-1.625-2.083-2.034-2.824-.044-.077-.085-.152-.125-.225l.783-.784.385-.387c.478-.48.492-1.247.031-1.709l-2.317-2.325c-.46-.462-1.224-.448-1.703.032l-.652.659.017.018c-.219.28-.401.603-.537.952-.125.332-.204.649-.239.965-.307 2.545.852 4.87 3.997 8.026 4.347 4.362 7.85 4.033 8.002 4.016.328-.039.644-.118.965-.242.344-.135.666-.318.944-.538l.015.013.662-.65c.476-.48.49-1.247.03-1.71z" transform="translate(-1148 -92)"/>
  </symbol>
  <symbol id="letter" viewBox="0 0 17 12">
      <path d="M642.727 103.962l-5.367-5.653 5.309-4.372c.207.309.33.671.33 1.063v8c0 .35-.104.676-.272.962zm-15.614-10.71a2.19 2.19 0 0 1 1.012-.252h12.75c.368 0 .71.095 1.013.252l-7.388 6.084zm14.883 11.44a2.194 2.194 0 0 1-1.121.308h-12.75c-.413 0-.795-.115-1.12-.308l5.435-5.725 1.71 1.41a.55.55 0 0 0 .35.123.55.55 0 0 0 .35-.123l1.71-1.41zM631.64 98.31l-5.367 5.653A1.887 1.887 0 0 1 626 103v-8c0-.392.124-.754.33-1.063z" transform="translate(-626 -93)"/>
  </symbol>
  <symbol id="clock" viewBox="0 0 15 15">
      <path d="M877.5 92a7.5 7.5 0 1 1 0 15 7.5 7.5 0 0 1 0-15zm.518 8.416v-5.304a.519.519 0 0 0-1.037 0v4.477l-2.136-1.007a.52.52 0 0 0-.442.938l2.876 1.357a.573.573 0 0 0 .086.03l.027.007a.51.51 0 0 0 .088.01l.02.002a.533.533 0 0 0 .188-.036l.018-.007a.493.493 0 0 0 .077-.042l.019-.013a.493.493 0 0 0 .054-.045l.017-.016a.528.528 0 0 0 .055-.067l.003-.004a.482.482 0 0 0 .038-.067l.004-.01.019-.054c.004-.015.01-.03.013-.045.004-.014.005-.03.007-.044l.006-.06z" transform="translate(-870 -92)"/>
  </symbol>
  <symbol id="pin" viewBox="0 0 12 15">
    <path d="M335 6359.432c0 3.718-5.37 9.175-5.598 9.405a.579.579 0 0 1-.804 0c-.229-.23-5.598-5.687-5.598-9.405 0-2.995 2.692-5.432 6-5.432s6 2.437 6 5.432zm-2.981 0c0-1.507-1.355-2.733-3.02-2.733-1.664 0-3.018 1.226-3.018 2.733 0 1.507 1.354 2.733 3.019 2.733 1.664 0 3.019-1.226 3.019-2.733z" transform="translate(-323 -6354)"/>
  </symbol>
  <symbol id="skype" viewBox="0 0 19 19">
    <path fill="#48b8dd" transform="translate(-752 -17)" d="M770.454 28.517c.35.693.546 1.475.546 2.301 0 2.863-2.352 5.182-5.256 5.182-.898 0-1.744-.371-2.484-.763a9.27 9.27 0 0 1-1.66.15c-5.005 0-9.062-3.852-9.062-8.788 0-.615.064-1.216.184-1.795a5.113 5.113 0 0 1-.722-2.622c0-2.862 2.353-5.182 5.256-5.182a5.28 5.28 0 0 1 2.796.795 9.26 9.26 0 0 1 1.549-.13c5.006 0 9.062 4 9.062 8.934 0 .659-.072 1.299-.209 1.918z"/>
    <path fill="#fff" transform="translate(-752 -17)" d="M765.42 30.248c-.348.498-.858.889-1.53 1.17-.671.283-1.467.423-2.387.423-1.104 0-2.014-.192-2.732-.578a3.54 3.54 0 0 1-1.24-1.11c-.317-.462-.476-.912-.476-1.35 0-.253.095-.47.285-.65.191-.183.434-.273.729-.273.239 0 .441.07.606.212.166.14.307.349.423.627.143.33.296.604.463.825.164.22.397.403.697.546.3.142.695.215 1.183.215.67 0 1.216-.144 1.637-.433.419-.288.63-.65.63-1.082 0-.342-.114-.622-.34-.834a2.226 2.226 0 0 0-.878-.49 15.55 15.55 0 0 0-1.439-.36c-.803-.173-1.476-.377-2.017-.609-.541-.233-.972-.55-1.29-.95-.318-.404-.476-.903-.476-1.498 0-.57.167-1.074.503-1.516.336-.441.82-.78 1.457-1.018.636-.238 1.384-.356 2.243-.356.687 0 1.28.079 1.782.235.501.158.916.367 1.246.628.331.261.573.534.725.821.153.285.23.567.23.838a.952.952 0 0 1-.286.673c-.19.2-.428.3-.713.3-.26 0-.457-.06-.592-.18-.135-.12-.281-.316-.438-.588-.204-.39-.447-.694-.733-.912-.285-.219-.742-.328-1.373-.328-.584 0-1.056.118-1.415.356-.358.236-.538.522-.538.856a.83.83 0 0 0 .183.535c.121.151.29.28.504.387.213.108.43.192.648.255.218.06.58.15 1.084.267.63.136 1.2.287 1.712.45.51.165.947.366 1.305.599.358.235.639.533.84.893.2.36.301.8.301 1.321a2.87 2.87 0 0 1-.522 1.683z"/>
  </symbol>
</svg>
