<svg xmlns="http://www.w3.org/2000/svg" xmlns:xlink="http://www.w3.org/1999/xlink" width="27" height="6" viewBox="0 0 27 6"><defs><path id="v9qqa" d="M717.068 185c-1.694 0-3.068-1.343-3.068-3s1.374-3 3.068-3c1.695 0 3.068 1.343 3.068 3s-1.373 3-3.068 3zm10.432 0c-1.695 0-3.068-1.343-3.068-3s1.373-3 3.068-3c1.694 0 3.068 1.343 3.068 3s-1.374 3-3.068 3zm10.432 0c-1.695 0-3.068-1.343-3.068-3s1.373-3 3.068-3c1.694 0 3.068 1.343 3.068 3s-1.374 3-3.068 3z"/></defs><g><g transform="translate(-714 -179)"><use fill="#ebebeb" xlink:href="#v9qqa"/></g></g></svg>