<svg xmlns="http://www.w3.org/2000/svg" xmlns:xlink="http://www.w3.org/1999/xlink" width="7" height="15" viewBox="0 0 7 15"><defs><path id="tr20a" d="M1538.223 790.989h1.519v6.769c0 .133.1.242.223.242h2.576c.123 0 .223-.109.223-.242v-6.737h1.746c.114 0 .21-.093.222-.215l.265-2.492a.256.256 0 0 0-.055-.189.217.217 0 0 0-.167-.08h-2.01v-1.563c0-.47.233-.71.695-.71h1.315c.124 0 .224-.107.224-.241v-2.288c0-.133-.1-.242-.224-.242h-1.812a1.54 1.54 0 0 0-.083-.001c-.314 0-1.407.066-2.27.926a2.714 2.714 0 0 0-.793 2.292v1.827h-1.594c-.124 0-.224.108-.224.241v2.46c0 .134.1.243.224.243z"/></defs><g><g transform="translate(-1538 -783)"><use fill="#fff" xlink:href="#tr20a"/></g></g></svg>